<svg width="9" height="15" viewBox="0 0 9 15" fill="none" xmlns="http://www.w3.org/2000/svg">
<path fill-rule="evenodd" clip-rule="evenodd" d="M8.01533 7.33131C8.28119 6.67393 7.79738 5.95637 7.08828 5.95637H6.90475C6.35246 5.95637 5.90474 5.50865 5.90474 4.95637V3.84648C5.90474 3.26415 6.38261 3.319 6.97141 3.319H7.03808C7.59036 3.319 8.03808 2.87129 8.03808 2.319V1.68164C8.03808 1.12936 7.59036 0.681641 7.03808 0.681641H5.90474C5.05605 0.681641 4.24212 1.01508 3.642 1.6086C3.04189 2.20212 2.70474 3.00711 2.70474 3.84648V4.95637C2.70474 5.50865 2.25703 5.95637 1.70474 5.95637H1.57141C1.01913 5.95637 0.571411 6.40408 0.571411 6.95637V7.59373C0.571411 8.14601 1.01913 8.59373 1.57141 8.59373H1.70475C2.25703 8.59373 2.70474 9.04144 2.70474 9.59373V13.3959C2.70474 13.9482 3.15246 14.3959 3.70474 14.3959H4.90474C5.45703 14.3959 5.90474 13.9482 5.90474 13.3959V9.54938C5.90474 9.02159 6.33261 8.59373 6.8604 8.59373C7.24984 8.59373 7.60032 8.35742 7.74634 7.99639L8.01533 7.33131Z" fill="#9893A3"/>
</svg>
